<?xml version="1.0" encoding="utf-8"?><!-- Uploaded to: SVG Repo, www.svgrepo.com, Generator: SVG Repo Mixer Tools -->
<svg fill="#000000" width="800px" height="800px" viewBox="0 0 24 24" id="place" data-name="Flat Line" xmlns="http://www.w3.org/2000/svg" class="icon flat-line"><path id="secondary" d="M12,3A6,6,0,0,0,6,9c0,5,6,12,6,12s6-7,6-12A6,6,0,0,0,12,3Zm0,8a2,2,0,1,1,2-2A2,2,0,0,1,12,11Z" style="fill: rgb(44, 169, 188); stroke-width: 2;"></path><path id="primary" d="M14,9a2,2,0,1,1-2-2A2,2,0,0,1,14,9Zm4,0A6,6,0,0,0,6,9c0,5,6,12,6,12S18,14,18,9Z" style="fill: none; stroke: rgb(0, 0, 0); stroke-linecap: round; stroke-linejoin: round; stroke-width: 2;"></path></svg>